<?xml version="1.0" encoding="utf-8"?>
<!-- Generator: Adobe Illustrator 16.0.0, SVG Export Plug-In . SVG Version: 6.00 Build 0)  -->
<!DOCTYPE svg PUBLIC "-//W3C//DTD SVG 1.1//EN" "http://www.w3.org/Graphics/SVG/1.1/DTD/svg11.dtd">
<svg version="1.1" id="Capa_1" xmlns="http://www.w3.org/2000/svg" xmlns:xlink="http://www.w3.org/1999/xlink" x="0px" y="0px"
	 width="1000px" height="1000px" viewBox="0 0 1000 1000" enable-background="new 0 0 1000 1000" xml:space="preserve">
<rect x="322.6" y="201.105" fill="#FFFFFF" stroke="#000000" stroke-miterlimit="10" width="458.977" height="602.97"/>
<path d="M500,0C224.3,0,0,224.3,0,500s224.3,500,500,500c275.699,0,500-224.3,500-500S775.699,0,500,0z M759.383,513.767
	l-366.667,250c-2.816,1.916-6.1,2.899-9.383,2.899c-2.667,0-5.351-0.633-7.783-1.934c-5.467-2.883-8.884-8.55-8.884-14.733V250
	c0-6.183,3.417-11.85,8.884-14.733c5.467-2.899,12.066-2.5,17.183,0.967l366.667,250c4.533,3.101,7.267,8.25,7.267,13.767
	C766.666,505.517,763.933,510.667,759.383,513.767z"/>
</svg>
